<?xml version="1.0" encoding="UTF-8"?>
<svg width="800" height="600" viewBox="0 0 800 600" xmlns="http://www.w3.org/2000/svg">
  <defs>
    <linearGradient id="floor-gradient" x1="0%" y1="0%" x2="0%" y2="100%">
      <stop offset="0%" stop-color="#8b7355" />
      <stop offset="100%" stop-color="#6b5842" />
    </linearGradient>
    <linearGradient id="wall-gradient" x1="0%" y1="0%" x2="0%" y2="100%">
      <stop offset="0%" stop-color="#2c2c2c" />
      <stop offset="100%" stop-color="#1a1a1a" />
    </linearGradient>
    <filter id="spotlight" x="0" y="0" width="200%" height="200%">
      <feGaussianBlur in="SourceAlpha" stdDeviation="4" result="blur" />
      <feOffset in="blur" dx="4" dy="4" result="offsetBlur" />
      <feSpecularLighting in="blur" surfaceScale="5" specularConstant=".75" specularExponent="20" lighting-color="#fffaaa" result="specOut">
        <fePointLight x="300" y="50" z="300" />
      </feSpecularLighting>
      <feComposite in="specOut" in2="SourceAlpha" operator="in" result="specOut" />
      <feComposite in="SourceGraphic" in2="specOut" operator="arithmetic" k1="0" k2="1" k3="1" k4="0" result="litPaint" />
    </filter>
    <filter id="glow" x="-20%" y="-20%" width="140%" height="140%">
      <feGaussianBlur stdDeviation="5" result="blur" />
      <feComposite in="SourceGraphic" in2="blur" operator="over" />
    </filter>
  </defs>
  
  <!-- 展厅背景 -->
  <rect x="0" y="0" width="800" height="600" fill="url(#wall-gradient)" />
  
  <!-- 展厅地面 -->
  <rect x="0" y="400" width="800" height="200" fill="url(#floor-gradient)" />
  
  <!-- 展厅中央平台 -->
  <rect x="150" y="380" width="500" height="20" fill="#4f3222" />
  
  <!-- 展示台围栏 -->
  <rect x="150" y="350" width="10" height="30" fill="#4f3222" />
  <rect x="250" y="350" width="10" height="30" fill="#4f3222" />
  <rect x="350" y="350" width="10" height="30" fill="#4f3222" />
  <rect x="450" y="350" width="10" height="30" fill="#4f3222" />
  <rect x="550" y="350" width="10" height="30" fill="#4f3222" />
  <rect x="640" y="350" width="10" height="30" fill="#4f3222" />
  <rect x="150" y="350" width="500" height="5" fill="#4f3222" />
  
  <!-- 展示灯光效果 -->
  <ellipse cx="200" cy="200" rx="40" ry="120" fill="#fffaaa" opacity="0.1" />
  <ellipse cx="400" cy="200" rx="40" ry="120" fill="#fffaaa" opacity="0.1" />
  <ellipse cx="600" cy="200" rx="40" ry="120" fill="#fffaaa" opacity="0.1" />
  
  <!-- 汉兵马俑1 - 将军俑 -->
  <g filter="url(#spotlight)">
    <rect x="180" y="250" width="40" height="130" fill="#8b5a2b" /> <!-- 身体 -->
    <circle cx="200" cy="230" r="25" fill="#8b5a2b" /> <!-- 头部 -->
    <rect x="175" y="255" width="10" height="60" fill="#8b5a2b" /> <!-- 左臂 -->
    <rect x="215" y="255" width="10" height="60" fill="#8b5a2b" /> <!-- 右臂 -->
    <rect x="160" y="300" width="25" height="10" fill="#8b5a2b" /> <!-- 左手 -->
    <rect x="215" y="300" width="25" height="10" fill="#8b5a2b" /> <!-- 右手 -->
    <rect x="180" y="380" width="15" height="20" fill="#8b5a2b" /> <!-- 左腿 -->
    <rect x="205" y="380" width="15" height="20" fill="#8b5a2b" /> <!-- 右腿 -->
    
    <!-- 盔甲细节 -->
    <rect x="185" y="250" width="30" height="10" fill="#6b4226" />
    <rect x="185" y="270" width="30" height="10" fill="#6b4226" />
    <rect x="185" y="290" width="30" height="10" fill="#6b4226" />
    <rect x="185" y="310" width="30" height="10" fill="#6b4226" />
  </g>
  
  <!-- 汉兵马俑2 - 战士俑 -->
  <g filter="url(#spotlight)">
    <rect x="380" y="250" width="40" height="130" fill="#a67c52" /> <!-- 身体 -->
    <circle cx="400" cy="230" r="25" fill="#a67c52" /> <!-- 头部 -->
    <rect x="365" y="270" width="15" height="60" rx="5" fill="#a67c52" /> <!-- 左臂 -->
    <rect x="420" y="270" width="15" height="60" rx="5" fill="#a67c52" /> <!-- 右臂 -->
    <rect x="365" y="330" width="15" height="10" fill="#a67c52" /> <!-- 左手 -->
    <rect x="420" y="330" width="15" height="10" fill="#a67c52" /> <!-- 右手 -->
    <rect x="390" y="380" width="20" height="20" fill="#a67c52" /> <!-- 腿 -->
    
    <!-- 盔甲细节 -->
    <rect x="385" y="250" width="30" height="5" fill="#8b6b43" />
    <rect x="385" y="265" width="30" height="5" fill="#8b6b43" />
    <rect x="385" y="280" width="30" height="5" fill="#8b6b43" />
    <rect x="385" y="295" width="30" height="5" fill="#8b6b43" />
    <rect x="385" y="310" width="30" height="5" fill="#8b6b43" />
    <rect x="385" y="325" width="30" height="5" fill="#8b6b43" />
    
    <!-- 长矛 -->
    <rect x="440" y="200" width="5" height="180" fill="#8b4513" />
  </g>
  
  <!-- 汉兵马俑3 - 跪射俑 -->
  <g filter="url(#spotlight)">
    <rect x="580" y="300" width="40" height="80" fill="#b38b6d" /> <!-- 身体 -->
    <circle cx="600" cy="280" r="25" fill="#b38b6d" /> <!-- 头部 -->
    <rect x="565" y="310" width="15" height="40" rx="5" fill="#b38b6d" /> <!-- 左臂 -->
    <rect x="620" y="310" width="15" height="40" rx="5" fill="#b38b6d" /> <!-- 右臂 -->
    
    <!-- 弓箭 -->
    <path d="M565,330 Q600,310 635,330" stroke="#8b4513" stroke-width="5" fill="none" />
    <line x1="600" y1="310" x2="600" y2="350" stroke="#8b4513" stroke-width="2" />
    
    <!-- 盔甲细节 -->
    <rect x="585" y="300" width="30" height="5" fill="#95714f" />
    <rect x="585" y="315" width="30" height="5" fill="#95714f" />
    <rect x="585" y="330" width="30" height="5" fill="#95714f" />
    <rect x="585" y="345" width="30" height="5" fill="#95714f" />
  </g>
  
  <!-- 展示标牌 -->
  <rect x="300" y="480" width="200" height="40" rx="5" fill="#4a3c2e" />
  <text x="400" y="505" font-family="Arial, sans-serif" font-size="16" text-anchor="middle" fill="#d4c4a8">汉代兵马俑 - 206 BC - 220 AD</text>
  
  <!-- 前景游客剪影 -->
  <circle cx="150" cy="500" r="15" fill="black" />
  <rect x="145" y="515" width="10" height="30" fill="black" />
  
  <circle cx="650" cy="500" r="15" fill="black" />
  <rect x="645" y="515" width="10" height="30" fill="black" />
  
  <circle cx="700" cy="520" r="12" fill="black" />
  <rect x="696" y="532" width="8" height="25" fill="black" />
  
  <!-- 标题 -->
  <text x="400" y="100" font-family="Arial, sans-serif" font-size="40" font-weight="bold" 
        text-anchor="middle" fill="#d4c4a8" filter="url(#glow)">
    徐州博物馆汉兵马俑展区
  </text>
  <text x="400" y="140" font-family="Arial, sans-serif" font-size="24" 
        text-anchor="middle" fill="#a89878" opacity="0.8">
    徐州网红打卡地
  </text>
</svg> 