<?xml version="1.0" encoding="UTF-8"?>
<svg width="800" height="600" xmlns="http://www.w3.org/2000/svg">
  <!-- 背景和渐变定义 -->
  <defs>
    <linearGradient id="plateGradient" x1="0%" y1="0%" x2="0%" y2="100%">
      <stop offset="0%" stop-color="#ffffff" />
      <stop offset="100%" stop-color="#f0f0f0" />
    </linearGradient>
    <linearGradient id="bgGradient" x1="0%" y1="0%" x2="0%" y2="100%">
      <stop offset="0%" stop-color="#f9f5f0" />
      <stop offset="100%" stop-color="#f0e5d3" />
    </linearGradient>
    <linearGradient id="pancakeGradient" x1="0%" y1="0%" x2="0%" y2="100%">
      <stop offset="0%" stop-color="#e8d9b5" />
      <stop offset="100%" stop-color="#d4bd8b" />
    </linearGradient>
    <linearGradient id="fishGradient" x1="0%" y1="0%" x2="0%" y2="100%">
      <stop offset="0%" stop-color="#f5f5f5" />
      <stop offset="100%" stop-color="#e0e0e0" />
    </linearGradient>
    <linearGradient id="sauceGradient" x1="0%" y1="0%" x2="0%" y2="100%">
      <stop offset="0%" stop-color="#8B4513" />
      <stop offset="100%" stop-color="#6B3610" />
    </linearGradient>
    <radialGradient id="plateShadowGradient" cx="50%" cy="50%" r="50%" fx="50%" fy="50%">
      <stop offset="0%" stop-color="#444444" stop-opacity="0.2"/>
      <stop offset="100%" stop-color="#444444" stop-opacity="0"/>
    </radialGradient>
    <pattern id="fishPattern" x="0" y="0" width="20" height="20" patternUnits="userSpaceOnUse">
      <path d="M0,10 L20,10" stroke="#DDDDDD" stroke-width="1" opacity="0.5"/>
      <path d="M10,0 L10,20" stroke="#DDDDDD" stroke-width="1" opacity="0.5"/>
    </pattern>
  </defs>
  
  <!-- 背景 -->
  <rect width="800" height="600" fill="url(#bgGradient)"/>
  
  <!-- 装饰边框 -->
  <rect x="40" y="40" width="720" height="520" stroke="#8B4513" stroke-width="3" fill="none" rx="10"/>
  <rect x="50" y="50" width="700" height="500" stroke="#8B4513" stroke-width="1" fill="none" rx="8" stroke-dasharray="5,5"/>
  
  <!-- 盘子阴影 -->
  <ellipse cx="400" cy="420" rx="250" ry="50" fill="url(#plateShadowGradient)"/>
  
  <!-- 盘子 -->
  <ellipse cx="400" cy="380" rx="240" ry="60" fill="url(#plateGradient)" stroke="#DDDDDD" stroke-width="2"/>
  <ellipse cx="400" cy="380" rx="220" ry="50" fill="#FFFFFF" stroke="#EEEEEE" stroke-width="1"/>
  
  <!-- 小鱼卷饼 - 主体 -->
  <g transform="translate(400, 380) rotate(-30)">
    <!-- 饼皮 - 底层 -->
    <ellipse cx="0" cy="0" rx="140" ry="100" fill="url(#pancakeGradient)" stroke="#d4bd8b" stroke-width="1"/>
    
    <!-- 卷起的饼边 -->
    <path d="M-140,0 C-120,-70 120,-70 140,0" fill="url(#pancakeGradient)" stroke="#d4bd8b" stroke-width="1" opacity="0.9"/>
    
    <!-- 饼皮褶皱 -->
    <path d="M-130,-10 C-110,-65 110,-65 130,-10" stroke="#c9b070" stroke-width="1" fill="none" opacity="0.8"/>
    <path d="M-120,-15 C-100,-60 100,-60 120,-15" stroke="#c9b070" stroke-width="1" fill="none" opacity="0.8"/>
    <path d="M-110,-20 C-90,-55 90,-55 110,-20" stroke="#c9b070" stroke-width="1" fill="none" opacity="0.8"/>
    <path d="M-100,-25 C-80,-50 80,-50 100,-25" stroke="#c9b070" stroke-width="1" fill="none" opacity="0.8"/>
    
    <!-- 小鱼馅料区域 -->
    <ellipse cx="0" cy="10" rx="110" ry="70" fill="#f0f0f0" opacity="0.5"/>
  </g>
  
  <!-- 小鱼馅料 -->
  <g transform="translate(400, 380) rotate(-30)">
    <!-- 多条小鱼 -->
    <g transform="translate(-70, 0) rotate(20)">
      <path d="M0,0 C5,-5 15,-5 20,0 C25,5 25,15 20,20 C15,25 5,25 0,20 C-5,15 -5,5 0,0 Z" fill="url(#fishGradient)" stroke="#DDDDDD" stroke-width="0.5"/>
      <path d="M20,10 L28,5 L28,15 Z" fill="url(#fishGradient)" stroke="#DDDDDD" stroke-width="0.5"/>
      <circle cx="5" cy="8" r="1" fill="#555555"/>
      <path d="M2,15 Q10,10 18,15" stroke="#DDDDDD" stroke-width="0.5" fill="none"/>
    </g>
    
    <g transform="translate(-40, -20) rotate(-10)">
      <path d="M0,0 C5,-5 15,-5 20,0 C25,5 25,15 20,20 C15,25 5,25 0,20 C-5,15 -5,5 0,0 Z" fill="url(#fishGradient)" stroke="#DDDDDD" stroke-width="0.5"/>
      <path d="M20,10 L28,5 L28,15 Z" fill="url(#fishGradient)" stroke="#DDDDDD" stroke-width="0.5"/>
      <circle cx="5" cy="8" r="1" fill="#555555"/>
      <path d="M2,15 Q10,10 18,15" stroke="#DDDDDD" stroke-width="0.5" fill="none"/>
    </g>
    
    <g transform="translate(10, 10) rotate(150)">
      <path d="M0,0 C5,-5 15,-5 20,0 C25,5 25,15 20,20 C15,25 5,25 0,20 C-5,15 -5,5 0,0 Z" fill="url(#fishGradient)" stroke="#DDDDDD" stroke-width="0.5"/>
      <path d="M20,10 L28,5 L28,15 Z" fill="url(#fishGradient)" stroke="#DDDDDD" stroke-width="0.5"/>
      <circle cx="5" cy="8" r="1" fill="#555555"/>
      <path d="M2,15 Q10,10 18,15" stroke="#DDDDDD" stroke-width="0.5" fill="none"/>
    </g>
    
    <g transform="translate(60, -15) rotate(210)">
      <path d="M0,0 C5,-5 15,-5 20,0 C25,5 25,15 20,20 C15,25 5,25 0,20 C-5,15 -5,5 0,0 Z" fill="url(#fishGradient)" stroke="#DDDDDD" stroke-width="0.5"/>
      <path d="M20,10 L28,5 L28,15 Z" fill="url(#fishGradient)" stroke="#DDDDDD" stroke-width="0.5"/>
      <circle cx="5" cy="8" r="1" fill="#555555"/>
      <path d="M2,15 Q10,10 18,15" stroke="#DDDDDD" stroke-width="0.5" fill="none"/>
    </g>
    
    <g transform="translate(20, 30) rotate(80)">
      <path d="M0,0 C5,-5 15,-5 20,0 C25,5 25,15 20,20 C15,25 5,25 0,20 C-5,15 -5,5 0,0 Z" fill="url(#fishGradient)" stroke="#DDDDDD" stroke-width="0.5"/>
      <path d="M20,10 L28,5 L28,15 Z" fill="url(#fishGradient)" stroke="#DDDDDD" stroke-width="0.5"/>
      <circle cx="5" cy="8" r="1" fill="#555555"/>
      <path d="M2,15 Q10,10 18,15" stroke="#DDDDDD" stroke-width="0.5" fill="none"/>
    </g>
  </g>
  
  <!-- 配料 - 葱花 -->
  <g transform="translate(400, 380) rotate(-30)">
    <path d="M-80,-10 L-85,-15" stroke="#4CAF50" stroke-width="1"/>
    <path d="M-78,-8 L-84,-12" stroke="#4CAF50" stroke-width="1"/>
    <path d="M-40,30 L-45,35" stroke="#4CAF50" stroke-width="1"/>
    <path d="M-38,32 L-42,38" stroke="#4CAF50" stroke-width="1"/>
    <path d="M0,20 L5,25" stroke="#4CAF50" stroke-width="1"/>
    <path d="M2,22 L8,28" stroke="#4CAF50" stroke-width="1"/>
    <path d="M40,-10 L45,-15" stroke="#4CAF50" stroke-width="1"/>
    <path d="M42,-8 L48,-12" stroke="#4CAF50" stroke-width="1"/>
    <path d="M70,10 L75,15" stroke="#4CAF50" stroke-width="1"/>
    <path d="M72,12 L78,18" stroke="#4CAF50" stroke-width="1"/>
  </g>
  
  <!-- 配料 - 香菜叶 -->
  <g transform="translate(400, 380) rotate(-30)">
    <!-- 香菜1 -->
    <g transform="translate(-60, -15)">
      <path d="M0,0 C2,-4 4,-5 6,-4 C8,-3 9,-1 8,2 C7,5 5,6 3,5 C1,4 -1,2 0,0 Z" fill="#388E3C" stroke="#2E7D32" stroke-width="0.3"/>
    </g>
    <!-- 香菜2 -->
    <g transform="translate(30, 25)">
      <path d="M0,0 C2,-4 4,-5 6,-4 C8,-3 9,-1 8,2 C7,5 5,6 3,5 C1,4 -1,2 0,0 Z" fill="#388E3C" stroke="#2E7D32" stroke-width="0.3"/>
    </g>
    <!-- 香菜3 -->
    <g transform="translate(60, -10)">
      <path d="M0,0 C2,-4 4,-5 6,-4 C8,-3 9,-1 8,2 C7,5 5,6 3,5 C1,4 -1,2 0,0 Z" fill="#388E3C" stroke="#2E7D32" stroke-width="0.3"/>
    </g>
    <!-- 香菜4 -->
    <g transform="translate(-20, 35)">
      <path d="M0,0 C2,-4 4,-5 6,-4 C8,-3 9,-1 8,2 C7,5 5,6 3,5 C1,4 -1,2 0,0 Z" fill="#388E3C" stroke="#2E7D32" stroke-width="0.3"/>
    </g>
  </g>
  
  <!-- 酱料 -->
  <g transform="translate(400, 380) rotate(-30)">
    <ellipse cx="-50" cy="0" rx="10" ry="7" fill="url(#sauceGradient)" opacity="0.6"/>
    <ellipse cx="30" cy="15" rx="8" ry="5" fill="url(#sauceGradient)" opacity="0.6"/>
    <ellipse cx="60" cy="-20" rx="5" ry="3" fill="url(#sauceGradient)" opacity="0.6"/>
    <ellipse cx="-20" cy="25" rx="7" ry="4" fill="url(#sauceGradient)" opacity="0.6"/>
  </g>
  
  <!-- 装饰元素 - 筷子 -->
  <rect x="180" y="320" width="300" height="4" fill="#8D6E63" rx="2" transform="rotate(15, 180, 320)"/>
  <rect x="175" y="330" width="300" height="4" fill="#6D4C41" rx="2" transform="rotate(15, 175, 330)"/>
  
  <!-- 装饰元素 - 小碗 -->
  <g transform="translate(580, 350) scale(0.7)">
    <ellipse cx="0" cy="0" rx="40" ry="15" fill="url(#plateShadowGradient)"/>
    <ellipse cx="0" cy="-10" rx="40" ry="10" fill="url(#plateGradient)" stroke="#DDDDDD" stroke-width="1"/>
    <path d="M-40,-10 C-40,10 -30,20 0,30 C30,20 40,10 40,-10" fill="url(#plateGradient)" stroke="#DDDDDD" stroke-width="1"/>
    <ellipse cx="0" cy="-10" rx="35" ry="8" fill="#FFFFFF" stroke="#EEEEEE" stroke-width="0.5"/>
    <!-- 醋/蘸料 -->
    <ellipse cx="0" cy="-10" rx="30" ry="6" fill="#8B0000" opacity="0.5"/>
  </g>
  
  <!-- 装饰元素 - 芝麻 -->
  <g transform="translate(400, 380) rotate(-30)">
    <circle cx="-90" cy="-30" r="1" fill="#555555"/>
    <circle cx="-80" cy="-25" r="1" fill="#555555"/>
    <circle cx="-70" cy="-35" r="1" fill="#555555"/>
    <circle cx="-60" cy="-40" r="1" fill="#555555"/>
    <circle cx="-50" cy="-30" r="1" fill="#555555"/>
    <circle cx="-40" cy="-35" r="1" fill="#555555"/>
    <circle cx="-30" cy="-25" r="1" fill="#555555"/>
    <circle cx="-20" cy="-40" r="1" fill="#555555"/>
    <circle cx="-10" cy="-35" r="1" fill="#555555"/>
    <circle cx="0" cy="-30" r="1" fill="#555555"/>
    <circle cx="10" cy="-40" r="1" fill="#555555"/>
    <circle cx="20" cy="-35" r="1" fill="#555555"/>
    <circle cx="30" cy="-30" r="1" fill="#555555"/>
    <circle cx="40" cy="-25" r="1" fill="#555555"/>
    <circle cx="50" cy="-35" r="1" fill="#555555"/>
    <circle cx="60" cy="-40" r="1" fill="#555555"/>
    <circle cx="70" cy="-30" r="1" fill="#555555"/>
    <circle cx="80" cy="-35" r="1" fill="#555555"/>
    <circle cx="90" cy="-25" r="1" fill="#555555"/>
  </g>
  
  <!-- 标题 -->
  <text x="400" y="100" font-family="'Microsoft YaHei'" font-size="30" text-anchor="middle" fill="#8B4513" font-weight="bold">小鱼卷饼</text>
  <text x="400" y="140" font-family="'Microsoft YaHei'" font-size="16" text-anchor="middle" fill="#6B3610">徐州特色美食</text>
  <text x="400" y="170" font-family="'Microsoft YaHei'" font-size="14" text-anchor="middle" fill="#8D6E63">香酥可口 回味无穷</text>
  
  <!-- 装饰元素 -->
  <circle cx="270" cy="100" r="8" fill="#f9f5f0" stroke="#8B4513" stroke-width="1"/>
  <circle cx="530" cy="100" r="8" fill="#f9f5f0" stroke="#8B4513" stroke-width="1"/>
  
  <path d="M200,160 Q250,120 300,160" stroke="#8B4513" stroke-width="1" fill="none"/>
  <path d="M500,160 Q550,120 600,160" stroke="#8B4513" stroke-width="1" fill="none"/>
  
  <!-- 装饰鱼图案 -->
  <g transform="translate(150, 520) scale(0.5) rotate(-30)">
    <path d="M0,0 C10,-10 30,-10 40,0 C50,10 50,30 40,40 C30,50 10,50 0,40 C-10,30 -10,10 0,0 Z" fill="url(#fishGradient)" stroke="#AAAAAA" stroke-width="1" opacity="0.5"/>
    <path d="M40,20 L55,10 L55,30 Z" fill="url(#fishGradient)" stroke="#AAAAAA" stroke-width="1" opacity="0.5"/>
    <circle cx="10" cy="15" r="2" fill="#555555"/>
    <path d="M5,30 Q20,20 35,30" stroke="#AAAAAA" stroke-width="1" fill="none"/>
  </g>
  
  <g transform="translate(650, 520) scale(0.5) rotate(30)">
    <path d="M0,0 C10,-10 30,-10 40,0 C50,10 50,30 40,40 C30,50 10,50 0,40 C-10,30 -10,10 0,0 Z" fill="url(#fishGradient)" stroke="#AAAAAA" stroke-width="1" opacity="0.5"/>
    <path d="M40,20 L55,10 L55,30 Z" fill="url(#fishGradient)" stroke="#AAAAAA" stroke-width="1" opacity="0.5"/>
    <circle cx="10" cy="15" r="2" fill="#555555"/>
    <path d="M5,30 Q20,20 35,30" stroke="#AAAAAA" stroke-width="1" fill="none"/>
  </g>
</svg> 