<?xml version="1.0" encoding="UTF-8"?>
<svg width="800" height="600" xmlns="http://www.w3.org/2000/svg">
  <!-- 渐变和图案定义 -->
  <defs>
    <linearGradient id="bgGradient" x1="0%" y1="0%" x2="0%" y2="100%">
      <stop offset="0%" stop-color="#f5e4c3" />
      <stop offset="100%" stop-color="#e2c17f" />
    </linearGradient>
    <linearGradient id="paperGradient" x1="0%" y1="0%" x2="100%" y2="100%">
      <stop offset="0%" stop-color="#fffaf0" />
      <stop offset="100%" stop-color="#f5e6cb" />
    </linearGradient>
    <pattern id="patternGrid" width="20" height="20" patternUnits="userSpaceOnUse">
      <path d="M 0 0 L 20 0 L 20 20 L 0 20 Z" fill="none" stroke="#e2c17f" stroke-width="0.5" opacity="0.3"/>
    </pattern>
    <filter id="paperTexture" x="0" y="0" width="100%" height="100%">
      <feTurbulence type="fractalNoise" baseFrequency="0.04" numOctaves="5" result="noise"/>
      <feDisplacementMap in="SourceGraphic" in2="noise" scale="5" xChannelSelector="R" yChannelSelector="G"/>
    </filter>
    <filter id="shadow" x="-20%" y="-20%" width="140%" height="140%">
      <feGaussianBlur in="SourceAlpha" stdDeviation="5" result="blur"/>
      <feOffset in="blur" dx="4" dy="4" result="offsetBlur"/>
      <feComposite in="SourceGraphic" in2="offsetBlur" operator="over"/>
    </filter>
  </defs>
  
  <!-- 背景 -->
  <rect width="800" height="600" fill="url(#bgGradient)"/>
  
  <!-- 地图纸张效果 -->
  <rect x="50" y="50" width="700" height="500" rx="10" fill="url(#paperGradient)" filter="url(#paperTexture)"/>
  <rect x="50" y="50" width="700" height="500" rx="10" fill="url(#patternGrid)" opacity="0.5"/>
  
  <!-- 汉代风格装饰边框 -->
  <rect x="60" y="60" width="680" height="480" rx="5" stroke="#9c0c0c" stroke-width="3" fill="none"/>
  <rect x="65" y="65" width="670" height="470" rx="3" stroke="#9c0c0c" stroke-width="1" fill="none" stroke-dasharray="5,5"/>
  
  <!-- 角落装饰 -->
  <g transform="translate(60, 60)">
    <path d="M0,0 L20,0 L20,20 L0,20 Z" fill="#9c0c0c" opacity="0.7"/>
    <path d="M5,5 L15,5 L15,15 L5,15 Z" fill="#e2c17f"/>
  </g>
  <g transform="translate(740, 60)">
    <path d="M0,0 L-20,0 L-20,20 L0,20 Z" fill="#9c0c0c" opacity="0.7"/>
    <path d="M-5,5 L-15,5 L-15,15 L-5,15 Z" fill="#e2c17f"/>
  </g>
  <g transform="translate(60, 540)">
    <path d="M0,0 L20,0 L20,-20 L0,-20 Z" fill="#9c0c0c" opacity="0.7"/>
    <path d="M5,-5 L15,-5 L15,-15 L5,-15 Z" fill="#e2c17f"/>
  </g>
  <g transform="translate(740, 540)">
    <path d="M0,0 L-20,0 L-20,-20 L0,-20 Z" fill="#9c0c0c" opacity="0.7"/>
    <path d="M-5,-5 L-15,-5 L-15,-15 L-5,-15 Z" fill="#e2c17f"/>
  </g>
  
  <!-- 标题 -->
  <text x="400" y="100" font-family="'Microsoft YaHei'" font-size="28" text-anchor="middle" fill="#7a0909" font-weight="bold">徐州经典一日游</text>
  <text x="400" y="130" font-family="'Microsoft YaHei'" font-size="14" text-anchor="middle" fill="#9c0c0c">从历史文化到美食之旅</text>
  
  <!-- 景点标记和路线 -->
  <!-- 景点1: 徐州火车站 (起点) -->
  <g transform="translate(400, 180)">
    <circle cx="0" cy="0" r="15" fill="white" stroke="#9c0c0c" stroke-width="2"/>
    <text x="0" y="5" font-family="'Microsoft YaHei'" font-size="14" text-anchor="middle" fill="#9c0c0c" font-weight="bold">1</text>
    <text x="0" y="-25" font-family="'Microsoft YaHei'" font-size="12" text-anchor="middle" fill="#333">徐州站</text>
    <text x="0" y="-40" font-family="'Microsoft YaHei'" font-size="10" text-anchor="middle" fill="#666">08:00</text>
  </g>
  
  <path d="M400,195 L350,230" stroke="#9c0c0c" stroke-width="2" fill="none" stroke-dasharray="5,3"/>
  
  <!-- 景点2: 徐州博物馆 -->
  <g transform="translate(350, 230)">
    <circle cx="0" cy="0" r="15" fill="white" stroke="#9c0c0c" stroke-width="2"/>
    <text x="0" y="5" font-family="'Microsoft YaHei'" font-size="14" text-anchor="middle" fill="#9c0c0c" font-weight="bold">2</text>
    <text x="0" y="-25" font-family="'Microsoft YaHei'" font-size="12" text-anchor="middle" fill="#333">徐州博物馆</text>
    <text x="0" y="-40" font-family="'Microsoft YaHei'" font-size="10" text-anchor="middle" fill="#666">09:00-11:00</text>
  </g>
  
  <path d="M350,245 L250,300" stroke="#9c0c0c" stroke-width="2" fill="none" stroke-dasharray="5,3"/>
  
  <!-- 景点3: 汉代文化景区 -->
  <g transform="translate(250, 300)">
    <circle cx="0" cy="0" r="15" fill="white" stroke="#9c0c0c" stroke-width="2"/>
    <text x="0" y="5" font-family="'Microsoft YaHei'" font-size="14" text-anchor="middle" fill="#9c0c0c" font-weight="bold">3</text>
    <text x="0" y="-25" font-family="'Microsoft YaHei'" font-size="12" text-anchor="middle" fill="#333">汉代文化景区</text>
    <text x="0" y="-40" font-family="'Microsoft YaHei'" font-size="10" text-anchor="middle" fill="#666">11:30-13:30</text>
  </g>
  
  <path d="M250,315 L370,380" stroke="#9c0c0c" stroke-width="2" fill="none" stroke-dasharray="5,3"/>
  
  <!-- 景点4: 美食广场（午餐）-->
  <g transform="translate(370, 380)">
    <circle cx="0" cy="0" r="15" fill="white" stroke="#9c0c0c" stroke-width="2"/>
    <text x="0" y="5" font-family="'Microsoft YaHei'" font-size="14" text-anchor="middle" fill="#9c0c0c" font-weight="bold">4</text>
    <text x="0" y="-25" font-family="'Microsoft YaHei'" font-size="12" text-anchor="middle" fill="#333">彭城美食街</text>
    <text x="0" y="-40" font-family="'Microsoft YaHei'" font-size="10" text-anchor="middle" fill="#666">14:00-15:00</text>
  </g>
  
  <path d="M370,395 L500,350" stroke="#9c0c0c" stroke-width="2" fill="none" stroke-dasharray="5,3"/>
  
  <!-- 景点5: 云龙山 -->
  <g transform="translate(500, 350)">
    <circle cx="0" cy="0" r="15" fill="white" stroke="#9c0c0c" stroke-width="2"/>
    <text x="0" y="5" font-family="'Microsoft YaHei'" font-size="14" text-anchor="middle" fill="#9c0c0c" font-weight="bold">5</text>
    <text x="0" y="-25" font-family="'Microsoft YaHei'" font-size="12" text-anchor="middle" fill="#333">云龙山风景区</text>
    <text x="0" y="-40" font-family="'Microsoft YaHei'" font-size="10" text-anchor="middle" fill="#666">15:30-17:30</text>
  </g>
  
  <path d="M500,365 L600,430" stroke="#9c0c0c" stroke-width="2" fill="none" stroke-dasharray="5,3"/>
  
  <!-- 景点6: 夜市美食 -->
  <g transform="translate(600, 430)">
    <circle cx="0" cy="0" r="15" fill="white" stroke="#9c0c0c" stroke-width="2"/>
    <text x="0" y="5" font-family="'Microsoft YaHei'" font-size="14" text-anchor="middle" fill="#9c0c0c" font-weight="bold">6</text>
    <text x="0" y="-25" font-family="'Microsoft YaHei'" font-size="12" text-anchor="middle" fill="#333">户部巷夜市</text>
    <text x="0" y="-40" font-family="'Microsoft YaHei'" font-size="10" text-anchor="middle" fill="#666">18:00-20:00</text>
  </g>
  
  <path d="M600,445 L400,490" stroke="#9c0c0c" stroke-width="2" fill="none" stroke-dasharray="5,3"/>
  
  <!-- 终点: 徐州站 -->
  <g transform="translate(400, 490)">
    <circle cx="0" cy="0" r="15" fill="white" stroke="#9c0c0c" stroke-width="2"/>
    <text x="0" y="5" font-family="'Microsoft YaHei'" font-size="14" text-anchor="middle" fill="#9c0c0c" font-weight="bold">7</text>
    <text x="0" y="-25" font-family="'Microsoft YaHei'" font-size="12" text-anchor="middle" fill="#333">徐州站</text>
    <text x="0" y="-40" font-family="'Microsoft YaHei'" font-size="10" text-anchor="middle" fill="#666">20:30</text>
  </g>
  
  <!-- 图标装饰 -->
  <!-- 博物馆图标 -->
  <g transform="translate(300, 230) scale(0.5)">
    <rect x="-20" y="-25" width="40" height="35" fill="none" stroke="#666" stroke-width="1"/>
    <rect x="-15" y="-20" width="30" height="30" fill="none" stroke="#666" stroke-width="1"/>
    <circle cx="0" cy="-5" r="5" fill="none" stroke="#666" stroke-width="1"/>
    <rect x="-20" y="10" width="40" height="5" fill="#666"/>
  </g>
  
  <!-- 古文化图标 -->
  <g transform="translate(200, 300) scale(0.5)">
    <rect x="-20" y="-20" width="40" height="10" fill="#666"/>
    <rect x="-15" y="-10" width="30" height="20" fill="none" stroke="#666" stroke-width="1"/>
    <rect x="-5" y="-10" width="10" height="20" fill="none" stroke="#666" stroke-width="1"/>
  </g>
  
  <!-- 美食图标 -->
  <g transform="translate(330, 380) scale(0.5)">
    <circle cx="-10" cy="-5" r="5" fill="none" stroke="#666" stroke-width="1"/>
    <circle cx="0" cy="0" r="5" fill="none" stroke="#666" stroke-width="1"/>
    <circle cx="10" cy="-5" r="5" fill="none" stroke="#666" stroke-width="1"/>
    <path d="M-10,0 C-5,10 5,10 10,0" fill="none" stroke="#666" stroke-width="1"/>
  </g>
  
  <!-- 山景图标 -->
  <g transform="translate(450, 350) scale(0.5)">
    <path d="M-20,10 L-10,-10 L0,5 L10,-15 L20,10 Z" fill="none" stroke="#666" stroke-width="1"/>
    <circle cx="10" cy="-10" r="3" fill="none" stroke="#666" stroke-width="1"/>
  </g>
  
  <!-- 夜市图标 -->
  <g transform="translate(550, 430) scale(0.5)">
    <path d="M-15,0 L-20,10 L20,10 L15,0 Z" fill="none" stroke="#666" stroke-width="1"/>
    <path d="M-10,-10 L-15,0 L15,0 L10,-10 Z" fill="none" stroke="#666" stroke-width="1"/>
    <line x1="-5" y1="-10" x2="-5" y2="10" stroke="#666" stroke-width="1"/>
    <line x1="5" y1="-10" x2="5" y2="10" stroke="#666" stroke-width="1"/>
  </g>
  
  <!-- 火车图标 -->
  <g transform="translate(450, 180) scale(0.5)">
    <rect x="-20" y="-5" width="40" height="10" rx="3" fill="none" stroke="#666" stroke-width="1"/>
    <rect x="-18" y="-2" width="6" height="4" fill="none" stroke="#666" stroke-width="1"/>
    <rect x="-8" y="-2" width="6" height="4" fill="none" stroke="#666" stroke-width="1"/>
    <rect x="2" y="-2" width="6" height="4" fill="none" stroke="#666" stroke-width="1"/>
    <rect x="12" y="-2" width="6" height="4" fill="none" stroke="#666" stroke-width="1"/>
    <circle cx="-12" cy="8" r="3" fill="none" stroke="#666" stroke-width="1"/>
    <circle cx="12" cy="8" r="3" fill="none" stroke="#666" stroke-width="1"/>
  </g>
  
  <!-- 终点图标 -->
  <g transform="translate(450, 490) scale(0.5)">
    <circle cx="0" cy="0" r="10" fill="none" stroke="#666" stroke-width="1"/>
    <circle cx="0" cy="0" r="5" fill="#666"/>
  </g>
  
  <!-- 行程提示 -->
  <g transform="translate(400, 530)">
    <text x="0" y="0" font-family="'Microsoft YaHei'" font-size="12" text-anchor="middle" fill="#7a0909">全程约12小时，路线全长约30公里</text>
  </g>
  
  <!-- 指南针 -->
  <g transform="translate(700, 120)">
    <circle cx="0" cy="0" r="25" fill="white" stroke="#9c0c0c" stroke-width="2"/>
    <path d="M0,-20 L0,20 M-20,0 L20,0" stroke="#9c0c0c" stroke-width="1"/>
    <path d="M0,-15 L5,-5 L0,0 L-5,-5 Z" fill="#9c0c0c"/>
    <text x="0" y="-23" font-family="'Microsoft YaHei'" font-size="10" text-anchor="middle" fill="#9c0c0c">北</text>
    <text x="23" y="0" font-family="'Microsoft YaHei'" font-size="10" text-anchor="middle" fill="#9c0c0c" dominant-baseline="middle">东</text>
    <text x="0" y="27" font-family="'Microsoft YaHei'" font-size="10" text-anchor="middle" fill="#9c0c0c">南</text>
    <text x="-23" y="0" font-family="'Microsoft YaHei'" font-size="10" text-anchor="middle" fill="#9c0c0c" dominant-baseline="middle">西</text>
  </g>
  
  <!-- 小贴士 -->
  <g transform="translate(150, 480)">
    <rect x="-80" y="-60" width="160" height="80" rx="5" fill="#fffaf0" stroke="#9c0c0c" stroke-width="1" opacity="0.8"/>
    <text x="0" y="-40" font-family="'Microsoft YaHei'" font-size="12" text-anchor="middle" fill="#7a0909" font-weight="bold">旅行小贴士</text>
    <text x="0" y="-20" font-family="'Microsoft YaHei'" font-size="10" text-anchor="middle" fill="#666">1. 博物馆周一闭馆</text>
    <text x="0" y="0" font-family="'Microsoft YaHei'" font-size="10" text-anchor="middle" fill="#666">2. 云龙山可乘坐1路公交车</text>
    <text x="0" y="20" font-family="'Microsoft YaHei'" font-size="10" text-anchor="middle" fill="#666">3. 推荐品尝徐州特色小吃</text>
  </g>
  
  <g transform="translate(670, 480)">
    <rect x="-100" y="-60" width="200" height="80" rx="5" fill="#fffaf0" stroke="#9c0c0c" stroke-width="1" opacity="0.8"/>
    <text x="0" y="-40" font-family="'Microsoft YaHei'" font-size="12" text-anchor="middle" fill="#7a0909" font-weight="bold">必尝美食</text>
    <text x="-70" y="-20" font-family="'Microsoft YaHei'" font-size="10" text-anchor="start" fill="#666">· 彭城汤包</text>
    <text x="0" y="-20" font-family="'Microsoft YaHei'" font-size="10" text-anchor="start" fill="#666">· 徐州烧饼</text>
    <text x="-70" y="0" font-family="'Microsoft YaHei'" font-size="10" text-anchor="start" fill="#666">· 小鱼卷饼</text>
    <text x="0" y="0" font-family="'Microsoft YaHei'" font-size="10" text-anchor="start" fill="#666">· 徐州凉皮</text>
    <text x="-70" y="20" font-family="'Microsoft YaHei'" font-size="10" text-anchor="start" fill="#666">· 狗肉汤</text>
    <text x="0" y="20" font-family="'Microsoft YaHei'" font-size="10" text-anchor="start" fill="#666">· 老玖烧烤</text>
  </g>
</svg> 