<?xml version="1.0" encoding="UTF-8"?>
<svg width="800" height="600" xmlns="http://www.w3.org/2000/svg">
  <!-- 背景和渐变定义 -->
  <defs>
    <linearGradient id="skyGradient" x1="0%" y1="0%" x2="0%" y2="100%">
      <stop offset="0%" stop-color="#a8d8f0" />
      <stop offset="100%" stop-color="#d8f0ff" />
    </linearGradient>
    <linearGradient id="mountainGradient" x1="0%" y1="0%" x2="0%" y2="100%">
      <stop offset="0%" stop-color="#59774e" />
      <stop offset="100%" stop-color="#496c3f" />
    </linearGradient>
    <linearGradient id="grassGradient" x1="0%" y1="0%" x2="0%" y2="100%">
      <stop offset="0%" stop-color="#8cc269" />
      <stop offset="100%" stop-color="#78b050" />
    </linearGradient>
    <linearGradient id="waterGradient" x1="0%" y1="0%" x2="0%" y2="100%">
      <stop offset="0%" stop-color="#60a5fa" />
      <stop offset="100%" stop-color="#3b82f6" />
    </linearGradient>
    <linearGradient id="templePinkGradient" x1="0%" y1="0%" x2="0%" y2="100%">
      <stop offset="0%" stop-color="#ffc1d3" />
      <stop offset="100%" stop-color="#ffb3b3" />
    </linearGradient>
    <linearGradient id="pathGradient" x1="0%" y1="0%" x2="0%" y2="100%">
      <stop offset="0%" stop-color="#e2c17f" />
      <stop offset="100%" stop-color="#c8a665" />
    </linearGradient>
    
    <!-- 樱花图案 -->
    <pattern id="cherryPattern" patternUnits="userSpaceOnUse" width="60" height="60">
      <g transform="translate(30, 30)">
        <circle cx="0" cy="0" r="5" fill="#ffd1dc"/>
        <circle cx="0" cy="-2" r="4" fill="#ffb0c0" opacity="0.6"/>
        <circle cx="2" cy="2" r="4" fill="#ffb0c0" opacity="0.6"/>
        <circle cx="-2" cy="2" r="4" fill="#ffb0c0" opacity="0.6"/>
        <circle cx="2" cy="-2" r="4" fill="#ffb0c0" opacity="0.6"/>
        <circle cx="-2" cy="-2" r="4" fill="#ffb0c0" opacity="0.6"/>
      </g>
    </pattern>
    
    <!-- 云朵过滤器 -->
    <filter id="cloudBlur" x="-50%" y="-50%" width="200%" height="200%">
      <feGaussianBlur in="SourceGraphic" stdDeviation="5" />
    </filter>
  </defs>
  
  <!-- 背景 -->
  <rect width="800" height="600" fill="url(#skyGradient)"/>
  
  <!-- 装饰云朵 -->
  <ellipse cx="100" cy="100" rx="70" ry="30" fill="white" opacity="0.8" filter="url(#cloudBlur)"/>
  <ellipse cx="650" cy="150" rx="90" ry="40" fill="white" opacity="0.7" filter="url(#cloudBlur)"/>
  <ellipse cx="400" cy="80" rx="60" ry="25" fill="white" opacity="0.9" filter="url(#cloudBlur)"/>
  <ellipse cx="250" cy="170" rx="50" ry="20" fill="white" opacity="0.6" filter="url(#cloudBlur)"/>
  
  <!-- 远处山脉 -->
  <path d="M-50,350 Q50,250 150,300 T300,230 T450,280 T600,200 T750,250 T900,230 L900,600 L-50,600 Z" fill="url(#mountainGradient)" opacity="0.6"/>
  
  <!-- 中层山脉 - 云龙山 -->
  <path d="M-50,600 L-50,370 Q0,350 50,330 Q100,310 150,340 Q200,370 250,330 Q300,290 350,310 Q400,330 450,300 Q500,270 550,290 Q600,310 650,280 Q700,250 750,270 Q800,290 850,280 L850,600 Z" fill="url(#mountainGradient)" opacity="0.8"/>
  
  <!-- 湖面 -->
  <path d="M-50,600 L-50,420 Q0,410 50,415 Q100,420 150,410 Q200,400 250,410 Q300,420 350,415 Q400,410 450,415 Q500,420 550,410 Q600,400 650,415 Q700,430 750,420 Q800,410 850,420 L850,600 Z" fill="url(#waterGradient)" opacity="0.7"/>
  
  <!-- 湖面波纹 -->
  <path d="M-50,450 Q0,445 50,450 T150,450 T250,450 T350,450 T450,450 T550,450 T650,450 T750,450 T850,450" stroke="white" stroke-width="1" fill="none" opacity="0.5"/>
  <path d="M-50,470 Q0,465 50,470 T150,470 T250,470 T350,470 T450,470 T550,470 T650,470 T750,470 T850,470" stroke="white" stroke-width="1" fill="none" opacity="0.4"/>
  <path d="M-50,490 Q0,485 50,490 T150,490 T250,490 T350,490 T450,490 T550,490 T650,490 T750,490 T850,490" stroke="white" stroke-width="1" fill="none" opacity="0.3"/>
  
  <!-- 樱花林覆盖山坡 -->
  <path d="M-50,370 Q0,350 50,330 Q100,310 150,340 Q200,370 250,330 Q300,290 350,310 Q400,330 450,300 Q500,270 550,290 Q600,310 650,280 Q700,250 750,270 Q800,290 850,280 L850,420 Q800,410 750,420 Q700,430 650,415 Q600,400 550,410 Q500,420 450,415 Q400,410 350,415 Q300,420 250,410 Q200,400 150,410 Q100,420 50,415 Q0,410 -50,420 Z" fill="url(#cherryPattern)" opacity="0.8"/>
  
  <!-- 单独的樱花树 - 左侧 -->
  <g transform="translate(180, 320)">
    <!-- 树干 -->
    <path d="M0,0 C5,-20 -5,-40 0,-60" stroke="#8B4513" stroke-width="4" fill="none"/>
    <path d="M0,-60 C10,-70 20,-65 25,-70" stroke="#8B4513" stroke-width="2" fill="none"/>
    <path d="M0,-60 C-10,-70 -20,-65 -25,-70" stroke="#8B4513" stroke-width="2" fill="none"/>
    <path d="M0,-40 C10,-45 15,-50 20,-45" stroke="#8B4513" stroke-width="2" fill="none"/>
    <path d="M0,-40 C-10,-45 -15,-50 -20,-45" stroke="#8B4513" stroke-width="2" fill="none"/>
    
    <!-- 樱花 -->
    <circle cx="0" cy="-60" r="20" fill="#ffd1dc" opacity="0.9"/>
    <circle cx="15" cy="-70" r="15" fill="#ffd1dc" opacity="0.9"/>
    <circle cx="-15" cy="-70" r="15" fill="#ffd1dc" opacity="0.9"/>
    <circle cx="20" cy="-50" r="18" fill="#ffd1dc" opacity="0.9"/>
    <circle cx="-20" cy="-50" r="18" fill="#ffd1dc" opacity="0.9"/>
    
    <!-- 飘落的花瓣 -->
    <g transform="rotate(20)">
      <ellipse cx="15" cy="-30" rx="3" ry="2" fill="#ffd1dc" opacity="0.7"/>
    </g>
    <g transform="rotate(-15)">
      <ellipse cx="-10" cy="-20" rx="4" ry="2" fill="#ffd1dc" opacity="0.8"/>
    </g>
    <g transform="rotate(45)">
      <ellipse cx="5" cy="-10" rx="3" ry="2" fill="#ffd1dc" opacity="0.6"/>
    </g>
  </g>
  
  <!-- 单独的樱花树 - 右侧 -->
  <g transform="translate(620, 350)">
    <!-- 树干 -->
    <path d="M0,0 C-3,-25 5,-45 0,-60" stroke="#8B4513" stroke-width="4" fill="none"/>
    <path d="M0,-60 C10,-70 20,-65 25,-70" stroke="#8B4513" stroke-width="2" fill="none"/>
    <path d="M0,-60 C-10,-70 -20,-65 -25,-70" stroke="#8B4513" stroke-width="2" fill="none"/>
    <path d="M0,-40 C10,-45 15,-50 20,-45" stroke="#8B4513" stroke-width="2" fill="none"/>
    <path d="M0,-40 C-10,-45 -15,-50 -20,-45" stroke="#8B4513" stroke-width="2" fill="none"/>
    
    <!-- 樱花 -->
    <circle cx="0" cy="-60" r="20" fill="#ffd1dc" opacity="0.9"/>
    <circle cx="15" cy="-70" r="15" fill="#ffd1dc" opacity="0.9"/>
    <circle cx="-15" cy="-70" r="15" fill="#ffd1dc" opacity="0.9"/>
    <circle cx="20" cy="-50" r="18" fill="#ffd1dc" opacity="0.9"/>
    <circle cx="-20" cy="-50" r="18" fill="#ffd1dc" opacity="0.9"/>
    
    <!-- 飘落的花瓣 -->
    <g transform="rotate(30)">
      <ellipse cx="15" cy="-30" rx="3" ry="2" fill="#ffd1dc" opacity="0.7"/>
    </g>
    <g transform="rotate(-25)">
      <ellipse cx="-10" cy="-20" rx="4" ry="2" fill="#ffd1dc" opacity="0.8"/>
    </g>
    <g transform="rotate(10)">
      <ellipse cx="5" cy="-10" rx="3" ry="2" fill="#ffd1dc" opacity="0.6"/>
    </g>
  </g>
  
  <!-- 山顶寺庙 -->
  <g transform="translate(400, 290)">
    <!-- 寺庙基座 -->
    <rect x="-30" y="-10" width="60" height="20" fill="#c8a665"/>
    
    <!-- 寺庙屋顶 -->
    <path d="M-35,-10 L0,-30 L35,-10" fill="url(#templePinkGradient)"/>
    <path d="M-30,-10 L0,-25 L30,-10" fill="#9c0c0c"/>
    
    <!-- 寺庙墙身 -->
    <rect x="-25" y="-10" width="50" height="10" fill="white"/>
    
    <!-- 寺庙门 -->
    <rect x="-8" y="-8" width="16" height="8" fill="#7a0909"/>
    
    <!-- 寺庙装饰柱 -->
    <rect x="-20" y="-10" width="3" height="10" fill="#e2c17f"/>
    <rect x="17" y="-10" width="3" height="10" fill="#e2c17f"/>
  </g>
  
  <!-- 山间小路 -->
  <path d="M400,290 C380,320 350,340 330,370 C310,400 290,450 300,500" stroke="url(#pathGradient)" stroke-width="8" fill="none" stroke-linecap="round"/>
  
  <!-- 小路间的石阶 -->
  <line x1="395" y1="300" x2="405" y2="300" stroke="#c8a665" stroke-width="2"/>
  <line x1="390" y1="310" x2="400" y2="310" stroke="#c8a665" stroke-width="2"/>
  <line x1="380" y1="320" x2="390" y2="320" stroke="#c8a665" stroke-width="2"/>
  <line x1="370" y1="330" x2="380" y2="330" stroke="#c8a665" stroke-width="2"/>
  <line x1="360" y1="340" x2="370" y2="340" stroke="#c8a665" stroke-width="2"/>
  <line x1="350" y1="350" x2="360" y2="350" stroke="#c8a665" stroke-width="2"/>
  <line x1="340" y1="360" x2="350" y2="360" stroke="#c8a665" stroke-width="2"/>
  <line x1="330" y1="375" x2="340" y2="375" stroke="#c8a665" stroke-width="2"/>
  <line x1="320" y1="390" x2="330" y2="390" stroke="#c8a665" stroke-width="2"/>
  <line x1="310" y1="410" x2="320" y2="410" stroke="#c8a665" stroke-width="2"/>
  <line x1="300" y1="430" x2="310" y2="430" stroke="#c8a665" stroke-width="2"/>
  <line x1="295" y1="450" x2="305" y2="450" stroke="#c8a665" stroke-width="2"/>
  <line x1="295" y1="470" x2="305" y2="470" stroke="#c8a665" stroke-width="2"/>
  <line x1="297" y1="490" x2="307" y2="490" stroke="#c8a665" stroke-width="2"/>
  
  <!-- 前景草地 -->
  <path d="M-50,600 L-50,500 Q0,490 50,500 T150,500 T250,490 T350,500 T450,490 T550,500 T650,490 T750,500 T850,490 L850,600 Z" fill="url(#grassGradient)"/>
  
  <!-- 草地上的小花 -->
  <g transform="translate(100, 520)">
    <circle cx="0" cy="0" r="3" fill="#ffff99"/>
    <circle cx="0" cy="0" r="1" fill="#ff9900"/>
  </g>
  <g transform="translate(150, 550)">
    <circle cx="0" cy="0" r="3" fill="#ffff99"/>
    <circle cx="0" cy="0" r="1" fill="#ff9900"/>
  </g>
  <g transform="translate(350, 530)">
    <circle cx="0" cy="0" r="3" fill="#ffff99"/>
    <circle cx="0" cy="0" r="1" fill="#ff9900"/>
  </g>
  <g transform="translate(500, 560)">
    <circle cx="0" cy="0" r="3" fill="#ffff99"/>
    <circle cx="0" cy="0" r="1" fill="#ff9900"/>
  </g>
  <g transform="translate(650, 540)">
    <circle cx="0" cy="0" r="3" fill="#ffff99"/>
    <circle cx="0" cy="0" r="1" fill="#ff9900"/>
  </g>
  <g transform="translate(750, 570)">
    <circle cx="0" cy="0" r="3" fill="#ffff99"/>
    <circle cx="0" cy="0" r="1" fill="#ff9900"/>
  </g>
  
  <!-- 飘落的樱花花瓣 -->
  <g transform="translate(0, 0)">
    <ellipse cx="100" cy="200" rx="4" ry="2" fill="#ffd1dc" opacity="0.7" transform="rotate(30)"/>
    <ellipse cx="200" cy="250" rx="3" ry="2" fill="#ffd1dc" opacity="0.5" transform="rotate(15)"/>
    <ellipse cx="300" cy="150" rx="4" ry="2" fill="#ffd1dc" opacity="0.6" transform="rotate(45)"/>
    <ellipse cx="400" cy="200" rx="3" ry="2" fill="#ffd1dc" opacity="0.7" transform="rotate(60)"/>
    <ellipse cx="500" cy="180" rx="4" ry="2" fill="#ffd1dc" opacity="0.5" transform="rotate(20)"/>
    <ellipse cx="600" cy="220" rx="3" ry="2" fill="#ffd1dc" opacity="0.6" transform="rotate(40)"/>
    <ellipse cx="700" cy="190" rx="4" ry="2" fill="#ffd1dc" opacity="0.7" transform="rotate(10)"/>
  </g>
  
  <!-- 汉代风格装饰边框 -->
  <rect x="20" y="20" width="760" height="560" stroke="#9c0c0c" stroke-width="5" fill="none" rx="10"/>
  <rect x="25" y="25" width="750" height="550" stroke="#e2c17f" stroke-width="1" fill="none" rx="8" stroke-dasharray="5,5"/>
  
  <!-- 标题 -->
  <text x="400" y="50" font-family="'Microsoft YaHei'" font-size="24" text-anchor="middle" fill="#9c0c0c" font-weight="bold">徐州春日</text>
  <text x="400" y="80" font-family="'Microsoft YaHei'" font-size="16" text-anchor="middle" fill="#7a0909">云龙山樱花盛开</text>
</svg> 